<?xml version="1.0" encoding="iso-8859-1"?>
<!-- Generator: Adobe Illustrator 18.0.0, SVG Export Plug-In . SVG Version: 6.00 Build 0)  -->
<!DOCTYPE svg PUBLIC "-//W3C//DTD SVG 1.1//EN" "http://www.w3.org/Graphics/SVG/1.1/DTD/svg11.dtd">
<svg version="1.1" id="Capa_1" xmlns="http://www.w3.org/2000/svg" xmlns:xlink="http://www.w3.org/1999/xlink" x="0px" y="0px"
	 viewBox="0 0 135.528 135.528" style="enable-background:new 0 0 135.528 135.528;" xml:space="preserve">
<g>
	<g>
		<linearGradient id="SVGID_1_" gradientUnits="userSpaceOnUse" x1="22.1855" y1="22.1854" x2="114.6208" y2="114.6207">
			<stop  offset="0" style="stop-color:#B3E7E4"/>
			<stop  offset="1" style="stop-color:#81D7D2"/>
		</linearGradient>
		<circle style="fill:transparent;" cx="67.764" cy="67.764" r="67.764"/>
	</g>
	<g>
		<g>
			<circle style="fill:#FFD800;" cx="68.028" cy="67.444" r="32.614"/>
			<g>
				<path style="fill:#FFF99A;" d="M23.894,92.438c-0.498,0.288-0.669,0.924-0.381,1.423c0.193,0.333,0.543,0.52,0.902,0.52
					c0.177,0,0.355-0.045,0.52-0.14l12.41-7.165c-0.374-0.584-0.733-1.178-1.075-1.784L23.894,92.438z"/>
				<path style="fill:#FFF99A;" d="M36.188,95.559c-0.425,0.386-0.457,1.045-0.071,1.47c0.206,0.226,0.488,0.341,0.771,0.341
					c0.25,0,0.5-0.089,0.699-0.27l4.499-4.084c-0.487-0.494-0.957-1.005-1.416-1.526L36.188,95.559z"/>
				<path style="fill:#FFF99A;" d="M27.286,80.333c-0.547,0.177-0.847,0.765-0.669,1.312c0.142,0.439,0.551,0.72,0.989,0.72
					c0.107,0,0.215-0.017,0.322-0.051l6.032-1.954c-0.245-0.648-0.478-1.302-0.687-1.967L27.286,80.333z"/>
				<path style="fill:#FFF99A;" d="M37.5,108.195c-0.337,0.465-0.235,1.116,0.23,1.454c0.185,0.134,0.399,0.199,0.611,0.199
					c0.322,0,0.639-0.148,0.843-0.429l8.525-11.732c-0.577-0.389-1.139-0.796-1.691-1.215L37.5,108.195z"/>
				<path style="fill:#FFF99A;" d="M20.479,51.852c-0.545-0.175-1.134,0.122-1.312,0.669c-0.178,0.547,0.122,1.134,0.669,1.311
					l12.988,4.221c0.179-0.674,0.381-1.338,0.597-1.995L20.479,51.852z"/>
				<path style="fill:#FFF99A;" d="M17.874,72.508c-0.572,0.06-0.986,0.571-0.927,1.144c0.057,0.535,0.508,0.932,1.034,0.932
					c0.036,0,0.073-0.002,0.11-0.005l13.946-1.466c-0.107-0.683-0.194-1.372-0.263-2.065L17.874,72.508z"/>
				<path style="fill:#FFF99A;" d="M50.073,105.885c-0.231,0.526,0.008,1.141,0.534,1.372c0.136,0.06,0.279,0.088,0.419,0.088
					c0.4,0,0.782-0.232,0.953-0.622l2.419-5.494c-0.645-0.26-1.283-0.536-1.909-0.831L50.073,105.885z"/>
				<path style="fill:#FFF99A;" d="M25.635,62.767c-0.577-0.065-1.084,0.353-1.146,0.924c-0.061,0.571,0.354,1.084,0.925,1.146
					l6.235,0.665c0.037-0.697,0.097-1.389,0.172-2.075L25.635,62.767z"/>
				<path style="fill:#FFF99A;" d="M96.344,109.418c0.204,0.281,0.521,0.429,0.843,0.429c0.212,0,0.426-0.064,0.611-0.199
					c0.465-0.338,0.568-0.988,0.231-1.454l-8.331-11.466c-0.558,0.413-1.13,0.806-1.711,1.187L96.344,109.418z"/>
				<path style="fill:#FFF99A;" d="M31.158,46.242c-0.5-0.283-1.135-0.11-1.42,0.39c-0.285,0.499-0.11,1.135,0.389,1.42l5.345,3.046
					c0.313-0.621,0.643-1.231,0.989-1.832L31.158,46.242z"/>
				<path style="fill:#FFF99A;" d="M56.339,117.057c-0.12,0.563,0.239,1.115,0.801,1.234c0.073,0.016,0.146,0.024,0.218,0.024
					c0.481,0,0.913-0.336,1.017-0.825l3.024-14.227c-0.686-0.126-1.365-0.269-2.037-0.433L56.339,117.057z"/>
				<path style="fill:#FFF99A;" d="M83.904,107.075c0.173,0.387,0.553,0.617,0.952,0.617c0.142,0,0.286-0.028,0.423-0.09
					c0.525-0.233,0.761-0.849,0.527-1.375l-2.539-5.693c-0.629,0.291-1.268,0.562-1.915,0.816L83.904,107.075z"/>
				<path style="fill:#FFF99A;" d="M77.153,117.49c0.104,0.489,0.536,0.825,1.017,0.825c0.072,0,0.145-0.008,0.218-0.024
					c0.562-0.119,0.921-0.671,0.801-1.234l-3-14.111c-0.674,0.154-1.354,0.292-2.041,0.408L77.153,117.49z"/>
				<path style="fill:#FFF99A;" d="M110.594,94.241c0.164,0.095,0.343,0.14,0.519,0.14c0.36,0,0.71-0.187,0.902-0.52
					c0.288-0.499,0.117-1.135-0.381-1.423l-11.981-6.917c-0.346,0.604-0.707,1.195-1.086,1.777L110.594,94.241z"/>
				<path style="fill:#FFF99A;" d="M107.866,82.485c0.107,0.036,0.216,0.052,0.323,0.052c0.438,0,0.846-0.279,0.989-0.718
					c0.178-0.546-0.121-1.134-0.667-1.312l-5.804-1.893c-0.214,0.663-0.448,1.316-0.698,1.962L107.866,82.485z"/>
				<path style="fill:#FFF99A;" d="M66.652,103.841l-0.013,6.191c-0.001,0.574,0.464,1.042,1.039,1.043c0,0,0.001,0,0.002,0
					c0.574,0,1.04-0.465,1.041-1.039l0.013-6.179c-0.236,0.004-0.47,0.019-0.706,0.019
					C67.566,103.876,67.109,103.857,66.652,103.841z"/>
				<path style="fill:#FFF99A;" d="M115.692,53.832c0.547-0.177,0.846-0.764,0.668-1.311c-0.178-0.547-0.764-0.844-1.312-0.669
					l-12.467,4.051c0.22,0.657,0.422,1.32,0.604,1.993L115.692,53.832z"/>
				<path style="fill:#FFF99A;" d="M110.464,64.923c0.572-0.059,0.987-0.57,0.928-1.142c-0.059-0.571-0.568-0.988-1.143-0.928
					l-6.01,0.624c0.074,0.687,0.134,1.378,0.17,2.075L110.464,64.923z"/>
				<path style="fill:#FFF99A;" d="M105.586,47.702c0.498-0.287,0.669-0.924,0.382-1.422c-0.287-0.497-0.924-0.669-1.422-0.381
					l-5.172,2.982c0.353,0.596,0.688,1.205,1.008,1.821L105.586,47.702z"/>
				<path style="fill:#FFF99A;" d="M105.66,35.591c0.427-0.385,0.462-1.044,0.077-1.471c-0.385-0.427-1.043-0.461-1.47-0.076
					l-9.558,8.606c0.473,0.508,0.935,1.025,1.379,1.561L105.66,35.591z"/>
				<path style="fill:#FFF99A;" d="M117.655,72.508l-13.379-1.407c-0.069,0.695-0.16,1.383-0.268,2.065l13.43,1.412
					c0.037,0.003,0.074,0.005,0.11,0.005c0.525,0,0.978-0.397,1.034-0.932C118.642,73.08,118.227,72.568,117.655,72.508z"/>
				<path style="fill:#FFF99A;" d="M93.784,93.209l4.599,4.152c0.199,0.18,0.448,0.269,0.697,0.269c0.285,0,0.567-0.115,0.773-0.344
					c0.385-0.426,0.352-1.085-0.076-1.47l-4.568-4.125C94.748,92.21,94.275,92.719,93.784,93.209z"/>
				<path style="fill:#FFF99A;" d="M68.805,31.032V18.254c0-0.574-0.466-1.041-1.041-1.041s-1.041,0.467-1.041,1.041v12.792
					c0.434-0.016,0.866-0.033,1.304-0.033C68.288,31.013,68.545,31.028,68.805,31.032z"/>
				<path style="fill:#FFF99A;" d="M31.262,34.043c-0.427-0.384-1.085-0.35-1.47,0.076c-0.385,0.427-0.351,1.086,0.077,1.471
					l9.879,8.894c0.438-0.538,0.888-1.067,1.356-1.58L31.262,34.043z"/>
				<path style="fill:#FFF99A;" d="M48.355,22.159c-0.233-0.524-0.85-0.762-1.374-0.527c-0.525,0.233-0.762,0.849-0.528,1.375
					l5.279,11.856c0.62-0.311,1.247-0.607,1.886-0.883L48.355,22.159z"/>
				<path style="fill:#FFF99A;" d="M43.193,32.829c-0.338-0.464-0.99-0.567-1.454-0.228c-0.464,0.338-0.566,0.99-0.228,1.455
					l3.663,5.025c0.54-0.436,1.094-0.854,1.659-1.258L43.193,32.829z"/>
				<path style="fill:#FFF99A;" d="M59.764,25.679c-0.119-0.561-0.671-0.921-1.234-0.801c-0.562,0.12-0.921,0.672-0.801,1.234
					l1.282,6.028c0.669-0.17,1.348-0.317,2.032-0.45L59.764,25.679z"/>
				<path style="fill:#FFF99A;" d="M77.807,26.112c0.119-0.563-0.239-1.115-0.801-1.234c-0.563-0.118-1.115,0.239-1.235,0.801
					l-1.26,5.921c0.686,0.123,1.365,0.264,2.038,0.425L77.807,26.112z"/>
				<path style="fill:#FFF99A;" d="M89.075,23.006c0.233-0.525-0.003-1.141-0.528-1.375c-0.524-0.234-1.141,0.003-1.374,0.527
					l-5.179,11.633c0.643,0.267,1.277,0.549,1.9,0.851L89.075,23.006z"/>
				<path style="fill:#FFF99A;" d="M94.024,33.967c0.338-0.465,0.235-1.116-0.229-1.454c-0.464-0.338-1.116-0.235-1.454,0.229
					l-3.498,4.81c0.57,0.398,1.126,0.812,1.672,1.24L94.024,33.967z"/>
			</g>
		</g>
	</g>
</g>
<g>
</g>
<g>
</g>
<g>
</g>
<g>
</g>
<g>
</g>
<g>
</g>
<g>
</g>
<g>
</g>
<g>
</g>
<g>
</g>
<g>
</g>
<g>
</g>
<g>
</g>
<g>
</g>
<g>
</g>
</svg>
